# xmcd
#
# Track frame offsets:
#	151
#	13917
#	28138
#	41925
#	56737
#	69683
#	82202
#	94742
#	109737
#	124940
#	141091
#	155173
#	165197
#
# Disc length: 2391 seconds
#
# Revision: 1
# Processed by: cddbd v1.4PL0 Copyright (c) Steve Scherf et al.
# Submitted via: audiograbber 1.82.02
#
DISCID=bc09550d
DTITLE=Various Artist - Cowboy Roundup
DYEAR=1900
DGENRE=Country
TTITLE0=Back In The Saddle Again
TTITLE1=Sweet Betsy From Pike
TTITLE2=Wayward Wind
TTITLE3=Tumbling Tumbleweed
TTITLE4=Rye Whiskey
TTITLE5=Dont Fence Me In
TTITLE6=Cattle Call
TTITLE7=I Want To Be A Cowboy's Sweetheart
TTITLE8=Cool Water
TTITLE9=Leaving Cheyenne
TTITLE10=Ghost Riders In The Sky
TTITLE11=Buffalo Gals
TTITLE12=Happy Trails
EXTD=
EXTT0=
EXTT1=
EXTT2=
EXTT3=
EXTT4=
EXTT5=
EXTT6=
EXTT7=
EXTT8=
EXTT9=
EXTT10=
EXTT11=
EXTT12=
PLAYORDER=
